HIERARCHY
ROOT Hips
{
	OFFSET 0.0000 0.0000 0.0000
	CHANNELS 6 Xposition Yposition Zposition Zrotation Xrotation Yrotation
	JOINT Spine1
	{
		OFFSET -0.0137 5.0038 -0.0537
		CHANNELS 3 Zrotation Xrotation Yrotation
		JOINT Spine2
		{
			OFFSET -0.0000 7.1253 -0.0298
			CHANNELS 3 Zrotation Xrotation Yrotation
			JOINT Chest
			{
				OFFSET -0.0000 7.5501 -0.8160
				CHANNELS 3 Zrotation Xrotation Yrotation
				JOINT Neck1
				{
					OFFSET -0.1817 26.3113 -0.5533
					CHANNELS 3 Zrotation Xrotation Yrotation
					JOINT Neck2
					{
						OFFSET -0.0000 7.7094 2.3026
						CHANNELS 3 Zrotation Xrotation Yrotation
						JOINT Head
						{
							OFFSET -0.0000 6.1289 1.9537
							CHANNELS 3 Zrotation Xrotation Yrotation
							JOINT Jaw
							{
								OFFSET 0.0026 0.4756 3.0949
								CHANNELS 3 Zrotation Xrotation Yrotation
								End Site
								{
									OFFSET 0.0 1.0 0.0
								}
							}
							JOINT LeftEye
							{
								OFFSET 3.2064 5.3802 7.5869
								CHANNELS 3 Zrotation Xrotation Yrotation
								End Site
								{
									OFFSET 0.0 1.0 0.0
								}
							}
							JOINT RightEye
							{
								OFFSET -3.2224 5.3619 7.5582
								CHANNELS 3 Zrotation Xrotation Yrotation
								End Site
								{
									OFFSET 0.0 1.0 0.0
								}
							}
						}
					}
				}
				JOINT LeftShoulder
				{
					OFFSET 1.6217 23.2372 5.1134
					CHANNELS 3 Zrotation Xrotation Yrotation
					JOINT LeftArm
					{
						OFFSET 14.9198 0.0000 -5.5023
						CHANNELS 3 Zrotation Xrotation Yrotation
						JOINT LeftForeArm
						{
							OFFSET 28.7393 0.0000 -0.0026
							CHANNELS 3 Zrotation Xrotation Yrotation
							JOINT LeftHand
							{
								OFFSET 27.0940 -0.0000 0.0026
								CHANNELS 3 Zrotation Xrotation Yrotation
								JOINT LeftHandThumbEnd
								{
									OFFSET 12.2686 -3.2202 4.8331
									CHANNELS 3 Zrotation Xrotation Yrotation
									End Site
									{
										OFFSET 0.0 1.0 0.0
									}
								}
								JOINT LeftHandMiddleEnd
								{
									OFFSET 19.0120 -0.3129 -0.0340
									CHANNELS 3 Zrotation Xrotation Yrotation
									End Site
									{
										OFFSET 0.0 1.0 0.0
									}
								}
							}
						}
					}
				}
				JOINT RightShoulder
				{
					OFFSET -1.3801 23.1803 5.2142
					CHANNELS 3 Zrotation Xrotation Yrotation
					JOINT RightArm
					{
						OFFSET -15.0372 0.0000 -5.5456
						CHANNELS 3 Zrotation Xrotation Yrotation
						JOINT RightForeArm
						{
							OFFSET -28.7366 0.0000 -0.0026
							CHANNELS 3 Zrotation Xrotation Yrotation
							JOINT RightHand
							{
								OFFSET -27.1336 -0.0000 0.0026
								CHANNELS 3 Zrotation Xrotation Yrotation
								JOINT RightHandThumbEnd
								{
									OFFSET -12.2642 -3.2115 4.8040
									CHANNELS 3 Zrotation Xrotation Yrotation
									End Site
									{
										OFFSET 0.0 1.0 0.0
									}
								}
								JOINT RightHandMiddleEnd
								{
									OFFSET -19.0006 -0.3066 -0.0316
									CHANNELS 3 Zrotation Xrotation Yrotation
									End Site
									{
										OFFSET 0.0 1.0 0.0
									}
								}
							}
						}
					}
				}
			}
		}
	}
	JOINT LeftLeg
	{
		OFFSET 10.0432 -8.4345 2.5957
		CHANNELS 3 Zrotation Xrotation Yrotation
		JOINT LeftShin
		{
			OFFSET -0.0000 -43.2218 -0.8029
			CHANNELS 3 Zrotation Xrotation Yrotation
			JOINT LeftFoot
			{
				OFFSET 0.0000 -42.1551 -3.4815
				CHANNELS 3 Zrotation Xrotation Yrotation
				JOINT LeftToeBase
				{
					OFFSET 0.0000 -5.0595 13.2315
					CHANNELS 3 Zrotation Xrotation Yrotation
					End Site
					{
						OFFSET 0.0 1.0 0.0
					}
				}
			}
		}
	}
	JOINT RightLeg
	{
		OFFSET -10.0473 -8.2953 2.6203
		CHANNELS 3 Zrotation Xrotation Yrotation
		JOINT RightShin
		{
			OFFSET 0.0000 -43.3622 -0.8056
			CHANNELS 3 Zrotation Xrotation Yrotation
			JOINT RightFoot
			{
				OFFSET 0.0000 -42.1174 -3.4784
				CHANNELS 3 Zrotation Xrotation Yrotation
				JOINT RightToeBase
				{
					OFFSET -0.0000 -5.0796 13.2842
					CHANNELS 3 Zrotation Xrotation Yrotation
					End Site
					{
						OFFSET 0.0 1.0 0.0
					}
				}
			}
		}
	}
}
MOTION
Frames: 10
Frame Time: 0.033333
-1.8601 96.7815 -3.7011 1.6478 -0.2251 -7.4961 -0.9580 4.9863 -0.6001 -0.5981 -3.3718 -0.3855 -1.8798 13.1696 -3.7111 -1.1292 24.8734 3.2616 -1.4124 -3.8135 -2.4577 -1.1057 -9.9317 -3.1087 -0.0520 -0.0482 0.0886 0.6372 -10.5029 -3.7186 -0.7488 -10.5202 3.9190 -5.7648 14.4779 -4.5644 -63.3847 12.5201 -2.7619 0.9387 -0.4998 -104.5082 16.8147 39.6938 28.7243 -15.8232 10.6083 15.7027 -59.3357 1.7275 1.9303 14.0614 15.8183 8.7159 55.4130 -1.2168 -4.4999 0.0612 0.7827 93.9883 -21.8870 44.5146 -56.8739 15.8515 7.3908 -15.7649 49.8270 -3.7157 -5.3587 8.4958 -16.3070 8.9501 -0.3493 23.7522 -0.6727 -10.9538 -8.8489 -10.9971 1.6224 -1.9304 -2.1205 -12.1369 -21.6264 -17.8405 0.4433 25.1052 0.7258 11.9158 -7.2634 15.8769 -1.4448 -1.8068 0.9011
-1.7891 96.6823 -3.8553 1.6237 -0.0366 -7.1930 -0.8832 5.4120 -0.6204 -0.5779 -3.2083 -0.3552 -1.7733 13.4048 -3.6506 -1.2881 24.1209 3.2469 -1.3725 -3.8299 -2.3703 -1.1456 -10.7056 -2.9895 -0.0594 -0.0526 0.1032 0.6287 -10.5205 -3.7025 -0.7554 -10.5371 3.9350 -5.6436 14.5164 -4.6725 -63.5608 12.2228 -2.9702 1.1039 -0.4357 -105.1238 17.1481 40.2298 29.3955 -15.8149 10.5535 15.6645 -59.2594 1.7129 1.9746 13.9272 15.8140 9.1117 56.0307 -1.2817 -4.0052 0.2688 0.7230 94.7436 -21.3224 43.9367 -56.3325 15.7997 7.3925 -15.7726 49.8836 -3.6899 -5.3611 8.4119 -16.9996 8.7896 -0.3692 24.3844 -0.6948 -10.8146 -9.0522 -11.1223 1.6209 -1.9107 -2.1101 -12.1104 -22.1397 -18.1063 0.4501 25.5180 0.7279 12.0050 -7.3628 15.9546 -1.4426 -1.8058 0.9197
-1.6474 96.5682 -4.0651 1.5937 0.1801 -6.9729 -0.8117 5.9212 -0.6488 -0.5517 -2.9985 -0.3234 -1.6488 13.6878 -3.5901 -1.4820 23.3066 3.2368 -1.3026 -3.8398 -2.2137 -1.2236 -11.5743 -2.8268 -0.0638 -0.0547 0.1089 0.6195 -10.5255 -3.6949 -0.7547 -10.5443 3.9403 -5.4374 14.5224 -4.8092 -63.6962 11.9058 -3.1477 1.2091 -0.4109 -105.7724 17.4355 40.6441 30.0606 -15.7857 10.5302 15.6707 -59.1721 1.7011 2.0176 13.6669 15.7886 9.5546 56.6238 -1.3066 -3.2081 0.3913 0.6826 95.6110 -20.3184 43.3670 -55.7795 15.8099 7.3644 -15.7188 49.9955 -3.6609 -5.3335 8.3092 -17.8258 8.5853 -0.3812 25.1703 -0.7074 -10.6767 -9.2423 -11.2010 1.6254 -1.8950 -2.0880 -12.0806 -22.7680 -18.3505 0.4546 25.9646 0.7284 12.1036 -7.4326 16.0651 -1.4450 -1.7915 0.9214
-1.4451 96.4284 -4.3399 1.5809 0.4336 -6.8288 -0.7625 6.4805 -0.6838 -0.5326 -2.7650 -0.2788 -1.5265 14.0086 -3.5429 -1.6828 22.5260 3.2193 -1.2377 -3.8542 -1.9695 -1.2746 -12.5175 -2.6500 -0.0682 -0.0514 0.1228 0.6107 -10.5155 -3.6809 -0.7546 -10.5385 3.9555 -5.1320 14.5081 -4.9594 -63.8457 11.6236 -3.3554 1.2848 -0.3955 -106.4364 17.7061 41.0458 30.7901 -15.7873 10.5081 15.6668 -59.1367 1.7095 2.0172 13.3446 15.7519 10.0425 57.0592 -1.3752 -2.1843 0.4689 0.7343 96.5139 -19.1252 43.0620 -55.5793 15.8102 7.3260 -15.6497 50.0803 -3.6242 -5.2877 8.1616 -18.7755 8.3608 -0.3953 26.1030 -0.7141 -10.5170 -9.4319 -11.2105 1.6292 -1.8916 -2.0799 -12.0736 -23.5297 -18.5610 0.4629 26.4690 0.7378 12.2159 -7.4788 16.2451 -1.4503 -1.8197 0.9097
-1.1953 96.2757 -4.6453 1.5962 0.7057 -6.7814 -0.7607 7.1030 -0.6926 -0.5120 -2.5429 -0.2722 -1.4428 14.3996 -3.4739 -1.8848 21.8302 3.2464 -1.1627 -3.8649 -1.7270 -1.2308 -13.5545 -2.4816 -0.0662 -0.0422 0.1242 0.6070 -10.5103 -3.6777 -0.7471 -10.5331 3.9557 -4.6727 14.5061 -5.1016 -64.0316 11.3382 -3.6259 1.3430 -0.4314 -107.1382 17.9566 41.3244 31.4865 -15.7817 10.5100 15.6657 -59.2415 1.7386 1.9790 12.9370 15.7675 10.5707 57.3155 -1.5523 -0.9814 0.4907 0.8112 97.4692 -17.8952 43.2015 -55.9560 15.8005 7.3110 -15.5786 50.1705 -3.5713 -5.2837 7.9491 -19.8416 8.1337 -0.4073 27.2429 -0.7219 -10.3017 -9.6937 -11.1368 1.6295 -1.9051 -2.0936 -12.1095 -24.4701 -18.6927 0.4703 27.1615 0.7379 12.3084 -7.5861 16.5237 -1.4564 -1.8973 0.8820
-0.9197 96.0595 -4.9500 1.6315 0.9729 -6.7691 -0.7992 7.7278 -0.7222 -0.5067 -2.2866 -0.2451 -1.3835 14.8107 -3.3998 -2.0677 21.1763 3.3182 -1.0971 -3.8708 -1.5456 -1.0852 -14.5875 -2.3142 -0.0686 -0.0288 0.1303 0.5981 -10.4863 -3.6709 -0.7431 -10.5053 3.9623 -4.1698 14.4792 -5.2768 -64.2035 11.0366 -3.8474 1.3041 -0.4203 -107.7403 18.0020 41.3799 31.8987 -15.7689 10.5265 15.6875 -59.3598 1.7864 1.9613 12.5081 15.8352 11.0796 57.4478 -1.9203 0.2312 0.5001 0.9850 98.4487 -16.5354 43.8241 -56.7809 15.7986 7.2880 -15.4912 50.1863 -3.5355 -5.2925 7.7113 -20.9590 7.9247 -0.4137 28.5165 -0.7228 -10.0701 -10.0655 -11.0102 1.6293 -1.8666 -2.1145 -12.2031 -25.5162 -18.7668 0.4856 28.0073 0.7446 12.3960 -7.7600 16.8283 -1.4634 -1.9536 0.8505
-0.6103 95.7764 -5.2501 1.6480 1.2210 -6.7703 -0.8551 8.3752 -0.7095 -0.4986 -2.0468 -0.2580 -1.3676 15.2792 -3.3305 -2.2423 20.6124 3.3984 -1.0390 -3.8832 -1.3688 -0.8626 -15.5504 -2.1802 -0.0764 -0.0188 0.1469 0.5894 -10.4742 -3.6536 -0.7506 -10.4866 3.9823 -3.6747 14.4121 -5.4841 -64.3268 10.8271 -4.0363 1.3251 -0.4090 -108.4103 17.9280 41.3347 32.1520 -15.7325 10.5838 15.7066 -59.5470 1.8446 1.9238 12.1067 15.9322 11.5157 57.4682 -2.4410 1.3769 0.4768 1.0634 99.5127 -15.4827 44.5924 -57.8045 15.7829 7.3154 -15.4187 50.2574 -3.4570 -5.2786 7.4731 -22.1806 7.8045 -0.4321 30.0091 -0.7297 -9.8033 -10.5617 -10.9186 1.6261 -1.7867 -2.1322 -12.2990 -26.6564 -18.8332 0.5063 29.0723 0.7499 12.4677 -8.0234 17.1400 -1.4666 -1.9977 0.8332
-0.3165 95.4533 -5.5540 1.6332 1.4358 -6.7110 -0.9065 8.9795 -0.7181 -0.4964 -1.7971 -0.2495 -1.3895 15.7964 -3.2777 -2.4143 20.0661 3.4241 -0.9746 -3.8970 -1.1824 -0.5817 -16.4063 -2.0576 -0.0839 -0.0116 0.1620 0.5793 -10.4605 -3.6350 -0.7552 -10.4689 3.9963 -3.3181 14.3164 -5.7036 -64.2836 10.6230 -4.0938 1.2895 -0.3967 -109.0287 17.7176 41.1764 32.2086 -15.6678 10.6224 15.7263 -59.6381 1.8523 1.9177 11.7896 16.0027 11.8343 57.5286 -3.1660 2.2484 0.4748 1.0818 100.5773 -14.8711 45.0992 -58.7640 15.8148 7.3413 -15.3896 50.3544 -3.4054 -5.3070 7.2809 -23.4523 7.7337 -0.4455 31.6176 -0.7308 -9.5439 -11.1390 -10.9061 1.6255 -1.6837 -2.1452 -12.3775 -27.7916 -18.9151 0.5428 30.2548 0.7931 12.4913 -8.3650 17.3957 -1.4662 -2.0043 0.8282
-0.0410 95.0862 -5.8099 1.5879 1.6181 -6.5636 -0.9561 9.5372 -0.7042 -0.5022 -1.5641 -0.2483 -1.4453 16.3449 -3.2502 -2.5508 19.5811 3.3999 -0.8893 -3.9089 -1.0186 -0.2141 -17.1011 -2.0340 -0.0902 -0.0104 0.1765 0.5715 -10.4632 -3.6178 -0.7601 -10.4669 4.0108 -3.1311 14.2457 -5.9163 -64.1385 10.4117 -4.0717 1.3104 -0.4040 -109.6218 17.5002 40.9895 32.3117 -15.6431 10.6488 15.7307 -59.7079 1.8369 1.8964 11.6240 16.0729 12.0943 57.5767 -3.9937 2.7742 0.4598 1.0520 101.6148 -14.8482 45.2778 -59.6730 15.8628 7.3750 -15.3756 50.4809 -3.3481 -5.3085 7.1275 -24.7347 7.6894 -0.4670 33.3003 -0.7428 -9.2833 -11.7208 -10.9167 1.6242 -1.5487 -2.1618 -12.4575 -28.8837 -18.9744 0.5765 31.5424 0.8306 12.4220 -8.7794 17.5734 -1.4628 -1.9827 0.8294
0.2173 94.7025 -6.0544 1.5247 1.7421 -6.2960 -1.0098 10.0385 -0.6930 -0.5160 -1.3302 -0.2334 -1.5409 16.9117 -3.2545 -2.6277 19.1762 3.3672 -0.7785 -3.9146 -0.9524 0.2330 -17.6787 -2.1068 -0.0897 -0.0114 0.1748 0.5655 -10.4641 -3.6183 -0.7533 -10.4639 4.0095 -3.1505 14.2247 -6.0703 -63.8717 10.1067 -3.9907 1.3323 -0.4002 -110.0754 17.2436 40.9138 32.5861 -15.6474 10.6263 15.6945 -59.7175 1.8061 1.8565 11.6117 16.1644 12.3495 57.6959 -4.9449 2.8859 0.4905 1.0131 102.5456 -15.2034 45.1494 -60.4098 15.9053 7.3792 -15.3913 50.5441 -3.3196 -5.3307 7.0055 -25.9658 7.5627 -0.4911 35.0270 -0.7550 -8.9838 -12.2939 -10.9347 1.6268 -1.4508 -2.1696 -12.5814 -29.8712 -19.0327 0.6146 32.8866 0.8789 12.3432 -9.2478 17.6466 -1.4592 -1.9548 0.8375
